<?xml version="1.0" standalone="no"?>
<!DOCTYPE svg PUBLIC "-//W3C//DTD SVG 20010904//EN"
 "http://www.w3.org/TR/2001/REC-SVG-20010904/DTD/svg10.dtd">
<svg version="1.0" xmlns="http://www.w3.org/2000/svg"
 width="256.000000pt" height="256.000000pt" viewBox="0 0 256.000000 256.000000"
 preserveAspectRatio="xMidYMid meet">

<g transform="translate(0.000000,256.000000) scale(0.100000,-0.100000)"
fill="#000000" stroke="none">
<path d="M694 2159 c-85 -25 -194 -140 -194 -206 0 -12 -13 -37 -29 -55 -35
-40 -59 -89 -191 -381 -56 -125 -115 -245 -130 -266 -162 -224 -142 -511 49
-702 213 -213 539 -212 752 1 141 143 189 332 133 531 l-17 59 44 53 44 54 28
-23 c53 -44 142 -44 196 2 l29 24 41 -51 c47 -59 47 -61 24 -120 -26 -71 -24
-237 5 -322 91 -263 363 -415 631 -352 239 57 410 276 411 525 0 94 -22 168
-89 294 -32 61 -111 229 -177 374 -79 176 -129 275 -152 300 -19 20 -41 59
-49 86 -22 72 -102 149 -178 172 -80 23 -167 15 -233 -21 -65 -35 -86 -59
-126 -136 -36 -70 -52 -82 -65 -47 -15 39 -62 90 -98 104 -42 18 -117 18 -152
0 -34 -18 -91 -81 -91 -101 0 -16 -18 -20 -36 -7 -5 4 -18 28 -28 54 -23 63
-100 133 -169 153 -56 16 -134 18 -183 4z m200 -75 c38 -20 104 -89 95 -99 -3
-2 -27 2 -54 10 -71 22 -219 19 -296 -5 -35 -10 -65 -17 -67 -15 -6 6 23 49
50 76 65 61 189 77 272 33z m996 3 c43 -22 109 -92 98 -103 -3 -3 -33 2 -66
10 -76 20 -224 21 -288 1 -66 -20 -69 -19 -49 13 60 94 205 132 305 79z m-541
-96 c44 -31 34 -36 -73 -36 -102 0 -104 1 -88 19 41 46 110 53 161 17z m-479
-42 c36 -5 105 -26 154 -46 l90 -35 55 17 c67 21 171 21 230 1 58 -21 68 -20
128 8 184 89 404 78 517 -26 46 -43 59 -69 231 -454 l22 -50 -76 38 c-225 112
-502 49 -654 -147 l-42 -55 -41 47 c-36 42 -42 55 -46 105 -5 71 -39 119 -102
143 -107 41 -216 -38 -216 -155 0 -39 -6 -52 -42 -94 l-43 -48 -37 50 c-153
207 -465 272 -685 142 -18 -11 -33 -18 -33 -16 0 17 215 465 232 483 32 34
134 81 198 92 77 12 87 12 160 0z m458 -513 c90 -46 54 -186 -47 -186 -50 0
-88 30 -97 76 -16 88 65 151 144 110z m-596 -63 c132 -48 231 -145 284 -276
25 -61 29 -85 29 -167 0 -117 -20 -186 -78 -272 -137 -201 -397 -265 -621
-151 -27 14 -76 51 -107 82 -92 93 -139 205 -139 337 0 213 144 401 351 459
73 20 207 14 281 -12z m1371 12 c87 -23 155 -61 218 -124 187 -187 187 -485 0
-672 -203 -203 -541 -181 -713 48 -235 313 -18 758 372 762 36 1 92 -6 123
-14z"/>
<path d="M647 1875 c-76 -28 -127 -82 -127 -135 0 -32 37 -25 59 11 26 42 65
66 128 80 46 9 53 13 53 35 0 21 -4 24 -37 23 -21 0 -55 -7 -76 -14z"/>
<path d="M1172 1760 c-73 -10 -151 -32 -216 -60 -34 -14 -46 -25 -46 -40 0
-32 19 -33 106 -1 174 63 342 63 528 0 90 -31 112 -30 104 6 -6 35 -191 90
-328 98 -47 3 -113 2 -148 -3z"/>
<path d="M472 1655 c-16 -35 -15 -62 3 -69 27 -10 67 56 50 83 -12 20 -42 11
-53 -14z"/>
<path d="M478 1307 c-186 -70 -293 -255 -260 -448 45 -259 288 -398 508 -289
282 139 274 586 -13 717 -69 32 -178 41 -235 20z m225 -84 c114 -63 163 -205
112 -329 -20 -48 -81 -110 -131 -135 -60 -28 -153 -29 -215 -2 -169 77 -210
293 -80 423 85 85 206 101 314 43z m-399 -397 c52 -89 157 -146 270 -146 110
0 201 48 265 140 36 51 39 42 12 -30 -29 -75 -81 -134 -153 -169 -168 -84
-354 8 -414 204 -7 25 -11 45 -9 45 1 0 15 -20 29 -44z"/>
<path d="M1883 1302 c-139 -50 -229 -163 -253 -319 -27 -170 59 -342 205 -414
219 -108 462 31 507 290 30 174 -63 357 -219 431 -66 32 -171 37 -240 12z
m186 -58 c39 -11 67 -29 102 -64 165 -165 48 -443 -185 -442 -94 0 -158 34
-216 114 -119 164 5 400 216 407 17 1 54 -6 83 -15z m207 -419 c-60 -196 -246
-288 -414 -204 -72 35 -124 94 -153 169 -28 73 -24 80 14 26 65 -90 153 -136
263 -136 113 0 218 57 270 146 14 24 28 44 29 44 2 0 -2 -20 -9 -45z"/>
</g>
</svg>
