<?xml version="1.0" standalone="no"?>
<!DOCTYPE svg PUBLIC "-//W3C//DTD SVG 20010904//EN"
 "http://www.w3.org/TR/2001/REC-SVG-20010904/DTD/svg10.dtd">
<svg version="1.0" xmlns="http://www.w3.org/2000/svg"
 width="512.000000pt" height="512.000000pt" viewBox="0 0 512.000000 512.000000"
 preserveAspectRatio="xMidYMid meet">

<g transform="translate(0.000000,512.000000) scale(0.100000,-0.100000)"
fill="#000000" stroke="none">
<path d="M4067 5030 c-58 -15 -135 -57 -183 -102 -41 -37 -114 -162 -114 -194
0 -11 -92 -14 -492 -16 l-493 -3 -67 -32 c-93 -44 -151 -100 -196 -191 l-37
-76 -3 -413 c-2 -333 -6 -413 -16 -413 -32 0 -157 -74 -195 -116 -39 -42 -101
-153 -101 -181 0 -9 -117 -13 -493 -15 l-493 -3 -76 -37 c-91 -45 -147 -103
-191 -196 l-32 -67 -3 -412 c-2 -333 -6 -413 -16 -413 -7 0 -45 -16 -83 -35
-86 -43 -144 -103 -186 -193 -29 -61 -32 -76 -32 -163 0 -89 2 -100 36 -167
l35 -72 -174 0 c-108 0 -190 -5 -216 -12 -55 -16 -138 -99 -154 -154 -17 -58
-17 -730 0 -788 16 -55 99 -138 154 -154 59 -17 1369 -17 1428 0 55 16 138 99
154 154 17 58 17 730 0 788 -16 55 -99 138 -154 154 -26 7 -108 12 -216 12
l-174 0 35 72 c34 67 36 78 36 167 0 87 -3 102 -32 163 -42 90 -100 150 -186
193 -38 19 -76 35 -83 35 -19 0 -20 741 -2 804 16 55 99 138 154 154 64 19
964 17 964 -2 0 -7 15 -43 33 -80 l34 -66 -175 0 c-108 0 -190 -5 -216 -12
-55 -16 -138 -99 -154 -154 -8 -29 -12 -146 -12 -394 0 -248 4 -365 12 -394
16 -55 99 -138 154 -154 29 -8 142 -12 373 -12 182 0 331 -3 331 -7 -1 -25
-31 -41 -122 -64 l-103 -25 0 -304 0 -304 104 -26 104 -26 27 -69 c14 -39 34
-84 43 -101 16 -31 16 -31 -38 -120 -30 -49 -54 -94 -55 -99 0 -19 417 -428
432 -423 7 3 51 28 97 56 84 50 84 51 115 35 17 -9 62 -29 101 -43 l69 -27 26
-104 26 -104 304 0 304 0 26 104 26 104 69 27 c39 14 84 34 101 43 31 16 31
15 115 -35 46 -28 90 -53 97 -56 15 -5 432 404 432 423 -1 5 -25 50 -55 99
-54 89 -54 89 -38 120 9 17 29 62 43 101 l27 69 104 26 104 26 0 304 0 304
-104 26 -104 26 -27 69 c-14 39 -34 84 -43 101 -16 31 -16 31 38 120 30 49 54
94 55 99 0 19 -417 428 -432 423 -7 -3 -51 -28 -97 -56 -84 -50 -84 -51 -115
-35 -17 9 -62 29 -101 43 l-69 27 -26 104 -26 104 -281 3 -281 2 -12 30 c-17
42 -90 104 -138 118 -24 7 -109 12 -214 12 l-174 0 35 72 c34 67 36 78 36 167
0 87 -3 102 -32 163 -42 90 -100 150 -186 193 -38 19 -76 35 -83 35 -19 0 -20
741 -2 804 16 55 99 138 154 154 64 19 964 17 964 -2 0 -7 15 -43 33 -80 l34
-66 -175 0 c-211 0 -240 -7 -307 -75 -32 -31 -55 -65 -63 -91 -17 -58 -17
-730 0 -788 16 -55 99 -138 154 -154 31 -9 215 -12 714 -12 499 0 683 3 714
12 55 16 138 99 154 154 17 58 17 730 0 788 -16 55 -99 138 -154 154 -26 7
-108 12 -216 12 l-174 0 35 72 c34 67 36 78 36 168 0 91 -2 100 -37 172 -68
136 -188 217 -336 224 -42 2 -94 -1 -115 -6z m167 -162 c86 -26 166 -136 166
-228 0 -124 -116 -240 -240 -240 -63 0 -114 23 -165 75 -102 101 -102 229 0
330 70 71 145 90 239 63z m621 -653 l25 -24 0 -351 0 -351 -25 -24 -24 -25
-671 0 -671 0 -24 25 -25 24 0 351 0 351 25 24 24 25 671 0 671 0 24 -25z
m-2221 -787 c86 -26 166 -136 166 -228 0 -124 -116 -240 -240 -240 -124 0
-240 116 -240 240 0 63 23 114 75 165 70 71 145 90 239 63z m621 -653 l25 -24
0 -351 0 -351 -25 -24 -24 -25 -671 0 -671 0 -24 25 -25 24 0 351 0 351 25 24
24 25 671 0 671 0 24 -25z m626 -226 l24 -91 86 -29 c48 -15 124 -46 169 -69
l82 -41 80 47 80 47 125 -126 126 -125 -47 -80 -47 -80 41 -82 c23 -45 54
-121 69 -169 l29 -86 91 -24 91 -24 0 -177 0 -177 -91 -25 -92 -24 -28 -86
c-15 -47 -46 -123 -69 -168 l-41 -82 47 -80 47 -80 -126 -125 -125 -126 -80
47 -80 47 -82 -41 c-45 -23 -121 -54 -169 -69 l-86 -29 -24 -91 -24 -91 -177
0 -177 0 -24 91 -24 91 -89 29 c-48 16 -123 47 -167 70 l-79 41 -81 -47 -81
-48 -125 126 -126 125 47 80 47 80 -41 82 c-23 45 -54 121 -69 169 l-29 86
-91 24 -91 24 0 177 0 177 92 24 92 25 13 44 c7 25 20 64 29 88 l16 42 85 0
c77 0 84 -2 78 -17 -83 -204 -102 -354 -70 -538 82 -471 545 -795 1015 -711
341 61 612 311 701 646 130 488 -197 998 -696 1085 -129 22 -219 20 -362 -11
l-33 -6 0 176 0 176 208 0 209 0 24 -91z m14 -423 c113 -36 198 -89 290 -181
91 -91 144 -175 182 -290 23 -71 26 -96 26 -215 0 -119 -3 -144 -26 -215 -38
-115 -91 -199 -182 -290 -91 -91 -175 -144 -290 -182 -71 -23 -96 -26 -215
-26 -119 0 -144 3 -215 26 -114 38 -198 90 -290 182 -91 91 -144 175 -182 290
-23 70 -27 96 -27 215 0 125 2 141 30 222 17 47 43 107 58 132 l27 46 76 0
c107 0 149 15 208 75 53 52 75 102 75 168 0 33 3 37 38 47 129 38 291 36 417
-4z m-2861 -138 c55 -16 138 -99 154 -154 28 -94 8 -169 -63 -239 -101 -102
-229 -102 -330 0 -102 101 -102 229 0 330 70 71 145 90 239 63z m621 -653 l25
-24 0 -351 0 -351 -25 -24 -24 -25 -671 0 -671 0 -24 25 -25 24 0 351 0 351
25 24 24 25 671 0 671 0 24 -25z"/>
<path d="M3600 4000 l0 -80 560 0 560 0 0 80 0 80 -560 0 -560 0 0 -80z"/>
<path d="M3600 3680 l0 -80 560 0 560 0 0 80 0 80 -560 0 -560 0 0 -80z"/>
<path d="M2000 2560 l0 -80 560 0 560 0 0 80 0 80 -560 0 -560 0 0 -80z"/>
<path d="M2000 2240 l0 -80 560 0 560 0 0 80 0 80 -560 0 -560 0 0 -80z"/>
<path d="M3586 1830 c-63 -16 -153 -70 -197 -117 -22 -24 -55 -74 -72 -111
-29 -61 -32 -76 -32 -163 0 -90 2 -99 37 -171 45 -91 103 -147 196 -191 61
-29 76 -32 162 -32 86 0 101 3 162 32 93 44 151 100 196 191 35 72 37 81 37
172 0 91 -2 100 -37 172 -68 136 -188 217 -336 224 -42 2 -94 -1 -116 -6z
m168 -162 c86 -26 166 -136 166 -228 0 -124 -116 -240 -240 -240 -124 0 -240
116 -240 240 0 63 23 114 75 165 70 71 145 90 239 63z"/>
<path d="M400 1120 l0 -80 560 0 560 0 0 80 0 80 -560 0 -560 0 0 -80z"/>
<path d="M400 800 l0 -80 560 0 560 0 0 80 0 80 -560 0 -560 0 0 -80z"/>
</g>
</svg>
