<?xml version="1.0" encoding="utf-8"?>
<!-- Svg Vector Icons : http://www.onlinewebfonts.com/icon -->
<!DOCTYPE svg PUBLIC "-//W3C//DTD SVG 1.1//EN" "http://www.w3.org/Graphics/SVG/1.1/DTD/svg11.dtd">
<svg version="1.1" xmlns="http://www.w3.org/2000/svg" xmlns:xlink="http://www.w3.org/1999/xlink" x="0px" y="0px" viewBox="0 0 256 256" enable-background="new 0 0 256 256" xml:space="preserve">
<metadata> Svg Vector Icons : http://www.onlinewebfonts.com/icon </metadata>
<g><g><g><path fill="#000000" d="M70.5,40C38.3,56.2,11.9,69.6,11.9,69.7c0,0.1,5.8,3.1,13,6.7c7.1,3.6,13,6.6,13,6.7c0,0.1-6.2,3.4-13.9,7.2c-7.6,3.8-13.9,7-13.9,7.2s6.5,3.5,14.3,7.4c7.9,3.9,14.3,7.3,14.3,7.4s-6.4,3.5-14.3,7.4c-7.9,3.9-14.3,7.3-14.3,7.4s6.5,3.5,14.3,7.4c7.9,3.9,14.3,7.3,14.3,7.4c0,0.1-6.4,3.5-14.3,7.4c-7.9,3.9-14.3,7.3-14.3,7.4c0,0.1,6.5,3.5,14.3,7.4c7.9,3.9,14.3,7.3,14.3,7.4c0,0.1-6.4,3.5-14.3,7.4c-7.9,3.9-14.3,7.3-14.3,7.4c0,0.1,26.5,13.5,58.9,29.7l58.8,29.5l58.9-29.5c32.4-16.2,59-29.6,59-29.7c0-0.1-6.4-3.5-14.3-7.4c-7.9-3.9-14.3-7.3-14.3-7.4s6.5-3.5,14.3-7.4c7.9-3.9,14.3-7.3,14.3-7.4s-6.4-3.5-14.3-7.4c-7.9-3.9-14.3-7.3-14.3-7.4s6.5-3.5,14.3-7.4c7.9-3.9,14.3-7.3,14.3-7.4s-6.4-3.5-14.3-7.4c-7.9-3.9-14.3-7.3-14.3-7.4s6.5-3.5,14.3-7.4c7.9-3.9,14.3-7.3,14.3-7.4s-5.8-3.1-13-6.7c-7.1-3.6-13-6.6-13-6.7c0-0.1,5.9-3.2,13.2-6.8c10.7-5.3,13.2-6.8,13.2-7.5c0-0.8-10-5.9-58.3-30.1c-32.1-16-58.4-29.1-58.4-29.1C129.2,10.6,102.8,23.8,70.5,40z M227.5,69.7c0,0.1-22,11.3-48.9,24.9l-49,24.6L80.7,94.6c-26.9-13.5-49-24.7-49-24.9c0-0.2,22-11.5,49-24.9l48.9-24.5l49,24.6C205.5,58.4,227.5,69.6,227.5,69.7z M89,108.5l40.5,20.4l39.8-19.9L209.2,89l8.2,4.1c4.5,2.3,8.2,4.2,8.2,4.3c0,0.1-22,11.3-48.9,24.9l-49,24.6l-48.9-24.5c-26.9-13.5-49-24.7-49-24.8c0-0.4,17.2-9.3,18-9.3C48.2,88.2,66.7,97.4,89,108.5z M88.5,137l39.1,19.7l39.4-19.7l39.4-19.7l9.6,4.8c5.3,2.6,9.6,4.9,9.6,5s-22,11.3-48.9,24.9l-49,24.6L78.9,152c-26.9-13.5-49-24.7-49-24.9c0-0.5,18-9.7,18.9-9.7C49.1,117.4,67.1,126.2,88.5,137z M88.5,166.6l39.1,19.7l39.4-19.7l39.4-19.7l9.6,4.8c5.3,2.6,9.6,4.9,9.6,5c0,0.1-22,11.3-49,24.8l-48.9,24.6l-48.9-24.5c-26.9-13.5-49-24.7-49-24.9c0-0.4,18-9.7,18.9-9.7C49.1,147,67,155.8,88.5,166.6z M88.5,196.2l39.1,19.7l39.4-19.7l39.4-19.7l9.6,4.8c5.3,2.6,9.6,4.9,9.6,5c0,0.1-22,11.3-48.9,24.8l-49,24.6l-48.9-24.5c-26.9-13.5-49-24.7-49-24.9c0-0.4,18-9.7,18.9-9.7C49.1,176.6,67,185.4,88.5,196.2z"/></g></g></g>
</svg>